<!-- Generated by IcoMoon.io -->
<svg version="1.1" xmlns="http://www.w3.org/2000/svg" width="640" height="640" viewBox="0 0 640 640">
<title></title>
<g id="icomoon-ignore">
</g>
<path fill="#000" d="M550.080 132.992c-53.504-49.12-140.256-49.12-193.76 0l-36.32 33.312-36.352-33.312c-53.504-49.12-140.224-49.12-193.728 0-60.192 55.232-60.192 144.608 0 199.84l230.080 211.168 230.080-211.168c60.16-55.232 60.16-144.64 0-199.84zM515.968 300l-195.968 182.88-196-182.88c-19.744-18.144-27.392-41.824-27.392-67.008s4.416-45.856 24.192-63.968c17.44-16.032 40.896-24.864 66.016-24.864 25.088 0 48.544 15.232 65.984 31.296l67.2 58.4 67.168-58.432c17.472-16.064 40.896-31.296 66.016-31.296s48.576 8.832 66.016 24.864c19.776 18.112 24.16 38.784 24.16 63.968s-7.616 48.896-27.392 67.040z"></path>
</svg>
